<svg width="102" height="28" viewBox="0 0 102 28" fill="none" xmlns="http://www.w3.org/2000/svg">
<path fill-rule="evenodd" clip-rule="evenodd" d="M37.7971 3.89373H35.9059L34.9274 5.82764L34.6587 5.7922C34.7449 5.00243 34.7905 4.23798 34.7905 3.50391H42.0204C42.0204 4.23798 42.061 5.00243 42.1523 5.7922L41.8835 5.82764L40.8898 3.89373H39.0139V11.3054C39.0139 11.4775 39.0747 11.6041 39.1964 11.6952L40.2611 11.7458V12.0648H36.5346V11.7458L37.5993 11.6952C37.7312 11.599 37.7971 11.4674 37.7971 11.3054V3.89373ZM47.623 10.3438C47.1007 11.5993 46.2439 12.227 45.0626 12.227L45.0575 12.222C44.5049 12.222 44.0131 12.0954 43.5821 11.8372C43.1562 11.5841 42.8165 11.2145 42.5782 10.7437C42.3399 10.2729 42.2183 9.75143 42.2183 9.11861C42.2183 8.48578 42.3349 7.92384 42.5681 7.43276C42.8013 6.94169 43.1309 6.562 43.5568 6.29368C43.9827 6.0203 44.4897 5.88867 45.0271 5.88867C45.5645 5.88867 46.036 6.00511 46.4416 6.23799C46.8472 6.47087 47.1514 6.79488 47.3492 7.21001C47.552 7.62514 47.6331 8.10609 47.6027 8.64272H43.4604V8.77941C43.4604 9.65018 43.6379 10.3387 43.9979 10.8399C44.3578 11.3411 44.8446 11.5942 45.458 11.5942C46.2743 11.5942 46.8929 11.1335 47.3188 10.2223L47.623 10.3438ZM45.0119 6.29368C44.586 6.29368 44.2412 6.46075 43.9776 6.805C43.7089 7.1442 43.5466 7.62514 43.4807 8.24784H46.3352C46.3554 7.63021 46.254 7.14926 46.0208 6.805C45.7876 6.46581 45.4378 6.29368 45.0119 6.29368ZM50.3663 11.7606L49.5348 11.6998C49.4537 11.6442 49.4131 11.5682 49.4131 11.4821C49.4131 11.4011 49.4486 11.31 49.5247 11.2138L50.8733 9.40142L52.1358 11.224C52.1915 11.305 52.222 11.391 52.222 11.4821C52.222 11.5885 52.1763 11.6593 52.0851 11.6998L51.2789 11.7606V12.0643H54.4173V11.7606L53.7785 11.6745L51.5983 8.65216L53.2664 6.42462L53.89 6.34868V6.04492H51.7606V6.34868L52.4602 6.3993C52.5414 6.44993 52.5819 6.51574 52.5819 6.60687C52.5819 6.68787 52.5464 6.779 52.4704 6.87519L51.3905 8.35347L50.3866 6.89544C50.3359 6.80431 50.3105 6.72331 50.3105 6.65243C50.3105 6.54612 50.3511 6.46512 50.4322 6.40943L51.1065 6.34868V6.04492H48.1152V6.34868L48.754 6.43474L50.6654 9.11285L48.7033 11.6695L48.0898 11.7555V12.0593H50.3663V11.7606ZM56.972 11.726L57.6463 11.7614V12.0651H54.7563V11.7614L55.4662 11.726C55.5878 11.5994 55.6487 11.4576 55.6487 11.2956V6.8203C55.6487 6.65323 55.5878 6.51148 55.4662 6.38998L54.7563 6.35454V6.05078H57.6463V6.35454L56.972 6.38998C56.8503 6.51654 56.7894 6.65829 56.7894 6.8203V8.73902H59.3752V6.8203C59.3752 6.65323 59.3093 6.51148 59.1774 6.38998L58.5031 6.35454V6.05078H61.3931V6.35454L60.6833 6.38998C60.5616 6.51654 60.5007 6.65829 60.5007 6.8203V11.2956C60.5007 11.4627 60.5616 11.6045 60.6833 11.726L61.3931 11.7614V12.0651H58.5031V11.7614L59.1774 11.726C59.3093 11.5994 59.3752 11.4576 59.3752 11.2956V9.11872H56.7894V11.2956C56.7894 11.4627 56.8503 11.6045 56.972 11.726ZM63.604 11.8374C64.04 12.0956 64.547 12.2222 65.1148 12.2222C65.6827 12.2222 66.2049 12.0905 66.646 11.8222C67.0871 11.559 67.4319 11.1843 67.6752 10.7034C67.9186 10.2224 68.0403 9.66555 68.0403 9.02766C68.0403 8.38977 67.9186 7.84808 67.6803 7.37219C67.4369 6.89631 67.1023 6.52674 66.6714 6.26855C66.2404 6.01035 65.7334 5.88379 65.1656 5.88379C64.5977 5.88379 64.0704 6.01542 63.6293 6.28373C63.1832 6.54699 62.8384 6.92162 62.595 7.40257C62.3517 7.88351 62.23 8.4404 62.23 9.07829C62.23 9.71617 62.3517 10.2579 62.59 10.7338C62.8333 11.2096 63.1679 11.5792 63.609 11.8323L63.604 11.8374ZM63.898 6.98743C64.187 6.52168 64.6028 6.2888 65.1402 6.2888C65.6776 6.2888 66.0934 6.52674 66.3773 7.00262C66.6612 7.47851 66.8083 8.17715 66.8083 9.08841C66.8083 9.99968 66.6663 10.6528 66.3773 11.1185C66.0934 11.5843 65.6776 11.8172 65.1402 11.8172C64.6028 11.8172 64.187 11.5792 63.898 11.1033C63.609 10.6274 63.462 9.9288 63.462 9.01754C63.462 8.10627 63.609 7.45319 63.898 6.98743ZM70.8897 6.96693C70.8339 8.20727 70.7325 9.2046 70.5905 9.96905L70.6007 9.97918C70.4587 10.7436 70.261 11.3005 70.0075 11.6549C69.754 12.0093 69.4295 12.1865 69.0391 12.1865C68.9428 12.1865 68.8363 12.1763 68.7197 12.1612L68.6943 11.0119C68.7602 11.0221 68.8667 11.0221 69.0137 11.0221C69.3281 11.0221 69.5867 10.8955 69.7895 10.6322C69.9872 10.3741 70.1444 9.95893 70.261 9.39698C70.3725 8.82997 70.4536 8.0807 70.5043 7.14412C70.5145 6.76949 70.4232 6.52649 70.2356 6.41005L69.3889 6.35942V6.05566H74.7531V6.35942L74.0433 6.39486C73.9216 6.52142 73.8607 6.66318 73.8607 6.82518V11.3005C73.8607 11.4676 73.9216 11.6093 74.0433 11.7308L74.7531 11.7663V12.07H71.8226V11.7663L72.5324 11.7308C72.6541 11.6043 72.7149 11.4625 72.7149 11.3005V6.4303H70.915L70.8897 6.96693ZM80.0057 11.8271C80.4468 11.5638 80.7915 11.1892 81.0349 10.7083C81.2783 10.2273 81.405 9.67043 81.405 9.03255C81.405 8.39466 81.2833 7.85296 81.0451 7.37708C80.8017 6.90119 80.4671 6.53162 80.0361 6.27343C79.6051 6.01524 79.1032 5.88867 78.5303 5.88867C77.9574 5.88867 77.4402 6.0203 76.9941 6.28862C76.5479 6.55187 76.2031 6.9265 75.9598 7.40745C75.7164 7.8884 75.5947 8.44528 75.5947 9.08317C75.5947 9.72106 75.7164 10.2628 75.9547 10.7386C76.1981 11.2145 76.5327 11.5841 76.9738 11.8372C77.4098 12.0954 77.9168 12.222 78.4847 12.222C79.0525 12.222 79.5747 12.0904 80.0158 11.822L80.0057 11.8271ZM77.2526 11.1031C76.9636 10.6273 76.8166 9.92863 76.8166 9.01736C76.8166 8.10609 76.9636 7.45302 77.2526 6.98726C77.5416 6.5215 77.9574 6.28862 78.4948 6.28862C79.0322 6.28862 79.448 6.52656 79.7319 7.00244C80.0158 7.47833 80.1629 8.17697 80.1629 9.08823C80.1629 9.9995 80.0209 10.6526 79.7319 11.1183C79.448 11.5841 79.0322 11.817 78.4948 11.817C77.9574 11.817 77.5416 11.579 77.2526 11.1031ZM82.2314 6.34886V6.0451V6.04004H87.0582C87.0582 6.73361 87.0886 7.3715 87.1545 7.95876L86.8706 8.01951L86.0391 6.40455H84.2645V11.3001C84.2645 11.4722 84.3254 11.6089 84.4471 11.7051L85.3039 11.7557V12.0595H82.2314V11.7557L82.9413 11.7203C83.0629 11.5937 83.1238 11.452 83.1238 11.29V6.81462C83.1238 6.64755 83.0629 6.5058 82.9413 6.3843L82.2314 6.34886ZM89.72 11.0672V6.81462C89.72 6.65261 89.7859 6.51086 89.9178 6.3843L90.5921 6.34886V6.0451H87.7021V6.34886L88.412 6.3843C88.5336 6.5058 88.5945 6.64755 88.5945 6.81462V11.29C88.5945 11.452 88.5336 11.5937 88.412 11.7203L87.7021 11.7557V12.0595H89.5984L92.4528 7.01712V11.2849C92.4528 11.4469 92.392 11.5886 92.2703 11.7152L91.596 11.7506V12.0544H94.4758V11.7506L93.766 11.7152C93.6443 11.5937 93.5834 11.452 93.5834 11.2849V6.80955C93.5834 6.64755 93.6443 6.5058 93.766 6.37923L94.4758 6.3438V6.04004H92.5745L89.72 11.0672ZM101.285 6.38996L101.995 6.35454V6.05078H100.094L97.2391 11.0779V6.8203C97.2391 6.65829 97.305 6.51654 97.4368 6.38998L98.1111 6.35454V6.05078H95.2212V6.35454L95.931 6.38998C96.0527 6.51148 96.1135 6.65323 96.1135 6.8203V11.2956C96.1135 11.4576 96.0527 11.5994 95.931 11.726L95.2212 11.7614V12.0651H97.1225L99.9769 7.0228V11.2906C99.9769 11.4526 99.9161 11.5943 99.7944 11.7209L99.1201 11.7563V12.0601H102V11.7563L101.29 11.7209C101.168 11.5994 101.108 11.4576 101.108 11.2906V6.81523C101.108 6.65538 101.167 6.51525 101.285 6.38996ZM42.7001 24.3921L41.6455 24.3415C41.5137 24.2605 41.4478 24.1289 41.4478 23.9517V16.9045C41.4478 16.7324 41.5086 16.6058 41.6303 16.5248L42.5125 16.4742V16.1553H35.7642V16.4742L36.7428 16.535C36.834 16.6008 36.905 16.7223 36.9659 16.8995C37.0216 17.0767 37.047 17.3095 37.0419 17.5981C36.9608 19.3245 36.7681 20.742 36.4741 21.8507C36.1749 22.9543 35.7592 23.7947 35.2319 24.3668L34.5322 24.4022C34.5373 24.5997 34.5424 24.8882 34.5424 25.273C34.5424 25.9109 34.517 26.5336 34.4663 27.1462L34.735 27.1816L35.7642 24.7212H41.5086L42.5024 27.1816L42.7609 27.1462C42.7102 26.4374 42.6849 25.754 42.6849 25.1009C42.6849 24.7921 42.6849 24.5541 42.695 24.3921H42.7001ZM40.236 24.3314H35.7642C36.2459 23.7694 36.6262 22.929 36.905 21.8051C37.1839 20.6863 37.3715 19.2283 37.4678 17.4462L37.5185 16.5502H40.2411V24.3314H40.236ZM46.4719 18.5449C47.0448 18.5449 47.5467 18.6715 47.9777 18.9297V18.9246C48.4087 19.1828 48.7433 19.5524 48.9866 20.0283C49.2249 20.5041 49.3466 21.0458 49.3466 21.6837C49.3466 22.3216 49.2249 22.8785 48.9816 23.3595C48.7382 23.8404 48.3935 24.215 47.9524 24.4783C47.5113 24.7466 46.989 24.8782 46.4212 24.8782C45.8533 24.8782 45.3463 24.7517 44.9103 24.4935C44.4692 24.2403 44.1295 23.8708 43.8912 23.3949C43.6529 22.919 43.5312 22.3773 43.5312 21.7394C43.5312 21.1015 43.658 20.5446 43.9014 20.0637C44.1447 19.5828 44.4895 19.2081 44.9357 18.9449C45.3768 18.6765 45.899 18.5449 46.4719 18.5449ZM46.4465 24.4783C46.984 24.4783 47.3997 24.2454 47.6836 23.7796C47.9726 23.3139 48.1146 22.6608 48.1146 21.7495C48.1146 20.8383 47.9676 20.1396 47.6836 19.6638C47.3997 19.1879 46.984 18.9499 46.4465 18.9499C45.9091 18.9499 45.4934 19.1828 45.2044 19.6486C44.9154 20.1143 44.7683 20.7674 44.7683 21.6787C44.7683 22.5899 44.9154 23.2886 45.2044 23.7645C45.4934 24.2403 45.9091 24.4783 46.4465 24.4783ZM54.3357 21.4965V21.5634C54.7743 21.6599 55.1072 21.8367 55.3345 22.0939C55.5677 22.347 55.6792 22.666 55.6792 23.0406C55.6792 23.5621 55.4714 23.9721 55.0658 24.2708C54.6551 24.5695 54.0822 24.7163 53.3369 24.7163H50.1782V24.4126L50.888 24.3771C51.0097 24.2556 51.0706 24.1139 51.0706 23.9519V19.4765C51.0706 19.3095 51.0097 19.1677 50.888 19.0462L50.1782 19.0108V18.707H53.1442C53.8743 18.707 54.4269 18.8336 54.8123 19.0969C55.1976 19.3601 55.3903 19.7196 55.3903 20.1752C55.3903 20.4941 55.299 20.7675 55.1215 20.9903C54.939 21.213 54.6804 21.3801 54.3357 21.4965ZM52.2113 21.3649V19.0817H53.0884C53.4586 19.0817 53.7374 19.1829 53.9351 19.3854C54.1329 19.5879 54.2292 19.8765 54.2292 20.241C54.2292 20.6055 54.1329 20.8789 53.9351 21.0713C53.7374 21.2687 53.4636 21.3649 53.1036 21.3649H52.2113ZM54.1785 24.0126C53.9656 24.2303 53.6614 24.3417 53.271 24.3417H52.2062V21.7496H53.2608C53.6614 21.7496 53.9656 21.8661 54.1785 22.099C54.3914 22.3318 54.4979 22.6559 54.4979 23.071C54.4979 23.4861 54.3914 23.7899 54.1785 24.0126ZM58.4527 23.4913C58.8127 23.9925 59.2994 24.2456 59.9129 24.2456C60.7292 24.2456 61.3478 23.79 61.7736 22.8736L62.0779 22.9951C61.5556 24.2506 60.6988 24.8784 59.5175 24.8784C58.9648 24.8784 58.473 24.7518 58.0421 24.4937C57.6162 24.2405 57.2816 23.871 57.0382 23.4001C56.7999 22.9293 56.6782 22.4129 56.6782 21.775C56.6782 21.1372 56.7948 20.5752 57.0281 20.0841C57.2562 19.5931 57.5858 19.2134 58.0117 18.945C58.4375 18.6767 58.9445 18.54 59.482 18.54C60.0194 18.54 60.4909 18.6565 60.8965 18.8894C61.3021 19.1222 61.6063 19.4462 61.8041 19.8614C62.0069 20.2765 62.088 20.7575 62.0576 21.2941H57.9153V21.4308C57.9153 22.3015 58.0928 22.9901 58.4527 23.4913ZM59.4718 18.9501C59.0459 18.9501 58.7012 19.1172 58.4375 19.4614C58.1688 19.8006 58.0066 20.2866 57.9407 20.9043H60.7951C60.8205 20.2866 60.714 19.8057 60.4808 19.4614C60.2476 19.1222 59.8977 18.9501 59.4718 18.9501ZM67.9696 18.9246C67.5994 18.6715 67.1736 18.5449 66.6868 18.5449C66.3624 18.5449 66.048 18.6158 65.7438 18.7576C65.4396 18.8993 65.0847 19.1524 64.6639 19.522V18.6057C64.167 18.6715 63.4724 18.7019 62.5801 18.7019V18.9854L63.5586 19.1676V26.7666C63.5586 26.9286 63.4978 27.0703 63.3761 27.1969L62.6663 27.2323V27.5361H65.7387V27.2323L64.892 27.1817C64.7602 27.0754 64.6943 26.9438 64.6943 26.7767V24.4175C65.0948 24.7263 65.5866 24.8833 66.1748 24.8833C66.7629 24.8833 67.28 24.7415 67.7262 24.4631C68.1724 24.1847 68.5171 23.7898 68.7605 23.2886C69.0039 22.7874 69.1255 22.2102 69.1255 21.5572C69.1255 20.9699 69.0241 20.4485 68.8213 19.9928C68.6185 19.5372 68.3295 19.1828 67.9594 18.9297L67.9696 18.9246ZM67.4676 23.7493C67.1786 24.2201 66.768 24.453 66.2356 24.453C65.7641 24.453 65.3889 24.2859 65.1151 23.9518C64.8413 23.6176 64.7044 23.1519 64.7044 22.5596V19.9422C65.0239 19.6638 65.2875 19.4764 65.4954 19.3752C65.7032 19.2739 65.9365 19.2233 66.19 19.2233C66.7629 19.2233 67.1888 19.4461 67.4778 19.8966C67.7668 20.3472 67.9087 20.9699 67.9087 21.7698C67.9087 22.6254 67.7617 23.2886 67.4727 23.7594L67.4676 23.7493ZM71.9901 19.4718V23.7295L71.9951 23.7244L74.8496 18.6973H76.7509V19.001L76.041 19.0365C75.9194 19.163 75.8585 19.3048 75.8585 19.4668V23.9421C75.8585 24.1092 75.9194 24.2509 76.041 24.3724L76.7509 24.4079V24.7116H73.8711V24.4079L74.5454 24.3724C74.6671 24.2459 74.7279 24.1041 74.7279 23.9421V19.6743L71.8734 24.7167H69.9722V24.4129L70.682 24.3775C70.8037 24.2509 70.8645 24.1092 70.8645 23.9472V19.4718C70.8645 19.3048 70.8037 19.163 70.682 19.0415L69.9722 19.0061V18.7023H72.8621V19.0061L72.1878 19.0415C72.056 19.1681 71.9901 19.3098 71.9901 19.4718ZM78.687 19.1572C78.2763 19.461 78.0685 19.8761 78.0685 20.4077C78.0685 20.8178 78.1952 21.1519 78.4487 21.4253C78.7022 21.6936 79.0673 21.8759 79.554 21.9771L78.3777 23.6427C78.1902 23.911 78.0178 24.1034 77.8707 24.2148C77.7186 24.3312 77.5412 24.4021 77.3384 24.4375V24.7312H78.8949L80.6948 22.053H81.5009V23.9616C81.5009 24.1237 81.4401 24.2654 81.3184 24.3869L80.6086 24.4223V24.7261H83.5391V24.4223L82.8293 24.3869C82.7076 24.2654 82.6467 24.1237 82.6467 23.9616V19.4863C82.6467 19.3243 82.7076 19.1775 82.8293 19.056L83.5391 19.0206V18.7168H80.4413C79.6909 18.7168 79.1078 18.8687 78.6972 19.1674L78.687 19.1572ZM81.5009 19.0813V21.6632H80.5325C80.1168 21.6632 79.7974 21.5468 79.5844 21.319C79.3664 21.0912 79.2599 20.7671 79.2599 20.352C79.2599 19.9369 79.3664 19.6331 79.5794 19.4104C79.7923 19.1876 80.1066 19.0813 80.5224 19.0813H81.5009ZM8.02588 26.4727L8.08168 26.498C8.06266 26.4891 8.04363 26.4803 8.02588 26.4727ZM8.13748 26.5233C8.11972 26.5157 8.1007 26.5068 8.08168 26.498L8.13748 26.5233Z" fill="white"/>
<path d="M0.785861 9.58374C0.278854 11.0063 0 12.5352 0 14.13C0 16.5651 0.648969 18.8483 1.77959 20.8227L5.83565 17.4966L0.785861 9.58374Z" fill="white"/>
<path d="M13.5016 0.643555C11.9958 0.643555 10.5508 0.891622 9.1971 1.34726L8.95374 14.9353L22.3489 3.94437C19.9761 1.88895 16.8884 0.643555 13.5016 0.643555Z" fill="white"/>
<path d="M7.52441 16.1098L4.14774 4.41016C3.84354 4.70379 3.55455 5.00754 3.28076 5.32142L6.95656 16.5705L7.52441 16.1048V16.1098Z" fill="white"/>
<path d="M6.61645 16.8486L2.00776 7.05249C1.82016 7.35625 1.64271 7.67519 1.48047 7.99413L6.1855 17.203L6.62152 16.8486H6.61645Z" fill="white"/>
<path d="M8.58873 15.2338L7.12348 2.24316C6.73816 2.45073 6.36297 2.67855 5.99792 2.92155L7.96511 15.7502L8.58873 15.2388V15.2338Z" fill="white"/>
<path d="M24.6807 6.56659L2.3927 21.7898C2.5955 22.0834 2.80845 22.367 3.03153 22.6403C3.90358 22.0835 24.8379 8.74857 25.644 8.23218C25.3601 7.64998 25.0356 7.0931 24.6756 6.56152L24.6807 6.56659Z" fill="white"/>
<path d="M13.5019 27.606C17.6999 27.606 21.4467 25.6924 23.926 22.6953L8.05664 26.4619C9.72469 27.196 11.5651 27.606 13.5019 27.606ZM8.65998 26.6897L8.61942 26.6745C8.49267 26.6239 8.36591 26.5733 8.24423 26.5176C8.38113 26.5783 8.52309 26.634 8.66505 26.6897H8.65998Z" fill="white"/>
<path d="M3.84314 23.5469C4.12706 23.8354 4.4262 24.1139 4.7304 24.3771L26.988 13.5432C26.9576 12.8243 26.8714 12.1155 26.7294 11.427L3.84314 23.5469Z" fill="white"/>
<path d="M6.79334 25.8243L25.872 19.5214C26.2117 18.7418 26.4804 17.9216 26.6731 17.0762L5.73877 25.151C6.07846 25.389 6.43337 25.6168 6.79334 25.8243Z" fill="white"/>
</svg>
