<svg width="60" height="78" viewBox="0 0 60 78" fill="none" xmlns="http://www.w3.org/2000/svg">
<mask id="mask0_239_4276" style="mask-type:alpha" maskUnits="userSpaceOnUse" x="0" y="0" width="60" height="78">
<path d="M10 69H21.75C22.9926 69 24 70.0074 24 71.25V72C24 75.3137 26.6863 78 30 78C33.3137 78 36 75.3137 36 72V71.25C36 70.0074 37.0074 69 38.25 69L50 69C55.5228 69 60 64.5228 60 59L60 47.25C60 46.0074 58.9926 45 57.75 45H57C53.6863 45 51 42.3137 51 39C51 35.6863 53.6863 33 57 33H57.75C58.9926 33 60 31.9926 60 30.75V19C60 13.4771 55.5228 9 50 9L38.25 9C37.0074 9 36 7.99264 36 6.75V6C36 2.68629 33.3137 0 30 0C26.6863 0 24 2.68629 24 6V6.75C24 7.99264 22.9926 9 21.75 9H10C4.47715 9 0 13.4771 0 19L0 30.75C0 31.9926 1.00736 33 2.25 33H3C6.31371 33 9 35.6863 9 39C9 42.3137 6.31371 45 3 45H2.25C1.00736 45 0 46.0074 0 47.25L0 59C0 64.5228 4.47715 69 10 69Z" fill="white"/>
</mask>
<g mask="url(#mask0_239_4276)">
<path d="M10 69H21.75C22.9926 69 24 70.0074 24 71.25V72C24 75.3137 26.6863 78 30 78C33.3137 78 36 75.3137 36 72V71.25C36 70.0074 37.0074 69 38.25 69L50 69C55.5228 69 60 64.5228 60 59L60 47.25C60 46.0074 58.9926 45 57.75 45H57C53.6863 45 51 42.3137 51 39C51 35.6863 53.6863 33 57 33H57.75C58.9926 33 60 31.9926 60 30.75V19C60 13.4771 55.5228 9 50 9L38.25 9C37.0074 9 36 7.99264 36 6.75V6C36 2.68629 33.3137 0 30 0C26.6863 0 24 2.68629 24 6V6.75C24 7.99264 22.9926 9 21.75 9H10C4.47715 9 0 13.4771 0 19L0 30.75C0 31.9926 1.00736 33 2.25 33H3C6.31371 33 9 35.6863 9 39C9 42.3137 6.31371 45 3 45H2.25C1.00736 45 0 46.0074 0 47.25L0 59C0 64.5228 4.47715 69 10 69Z" fill="white"/>
<rect x="12" y="-3" width="12" height="12" stroke="#92B6FD"/>
<rect x="60" y="-3" width="12" height="12" stroke="#92B6FD"/>
<rect x="36" y="-3" width="12" height="12" stroke="#92B6FD"/>
<rect x="-12" y="-3" width="12" height="12" stroke="#92B6FD"/>
<rect x="24" y="-3" width="12" height="12" stroke="#92B6FD"/>
<rect x="48" y="-3" width="12" height="12" stroke="#92B6FD"/>
<rect y="-3" width="12" height="12" stroke="#92B6FD"/>
<rect x="12" y="9" width="12" height="12" stroke="#92B6FD"/>
<rect x="12" y="21" width="12" height="12" stroke="#92B6FD"/>
<rect x="60" y="9" width="12" height="12" stroke="#92B6FD"/>
<rect x="60" y="21" width="12" height="12" stroke="#92B6FD"/>
<rect x="36" y="9" width="12" height="12" stroke="#92B6FD"/>
<rect x="36" y="21" width="12" height="12" stroke="#92B6FD"/>
<rect x="-12" y="9" width="12" height="12" stroke="#92B6FD"/>
<rect x="-12" y="21" width="12" height="12" stroke="#92B6FD"/>
<rect x="24" y="9" width="12" height="12" stroke="#92B6FD"/>
<rect x="24" y="21" width="12" height="12" stroke="#92B6FD"/>
<rect x="48" y="9" width="12" height="12" stroke="#92B6FD"/>
<rect x="48" y="21" width="12" height="12" stroke="#92B6FD"/>
<rect y="9" width="12" height="12" stroke="#92B6FD"/>
<rect y="21" width="12" height="12" stroke="#92B6FD"/>
<rect x="12" y="33" width="12" height="12" stroke="#92B6FD"/>
<rect x="12" y="45" width="12" height="12" stroke="#92B6FD"/>
<rect x="60" y="33" width="12" height="12" stroke="#92B6FD"/>
<rect x="60" y="45" width="12" height="12" stroke="#92B6FD"/>
<rect x="36" y="33" width="12" height="12" stroke="#92B6FD"/>
<rect x="36" y="45" width="12" height="12" stroke="#92B6FD"/>
<rect x="-12" y="33" width="12" height="12" stroke="#92B6FD"/>
<rect x="-12" y="45" width="12" height="12" stroke="#92B6FD"/>
<rect x="24" y="33" width="12" height="12" stroke="#92B6FD"/>
<rect x="24" y="45" width="12" height="12" stroke="#92B6FD"/>
<rect x="48" y="33" width="12" height="12" stroke="#92B6FD"/>
<rect x="48" y="45" width="12" height="12" stroke="#92B6FD"/>
<rect y="33" width="12" height="12" stroke="#92B6FD"/>
<rect y="45" width="12" height="12" stroke="#92B6FD"/>
<rect x="12" y="57" width="12" height="12" stroke="#92B6FD"/>
<rect x="12" y="69" width="12" height="12" stroke="#92B6FD"/>
<rect x="60" y="57" width="12" height="12" stroke="#92B6FD"/>
<rect x="60" y="69" width="12" height="12" stroke="#92B6FD"/>
<rect x="36" y="57" width="12" height="12" stroke="#92B6FD"/>
<rect x="36" y="69" width="12" height="12" stroke="#92B6FD"/>
<rect x="-12" y="57" width="12" height="12" stroke="#92B6FD"/>
<rect x="-12" y="69" width="12" height="12" stroke="#92B6FD"/>
<rect x="24" y="57" width="12" height="12" stroke="#92B6FD"/>
<rect x="24" y="69" width="12" height="12" stroke="#92B6FD"/>
<rect x="48" y="57" width="12" height="12" stroke="#92B6FD"/>
<rect x="48" y="69" width="12" height="12" stroke="#92B6FD"/>
<rect y="57" width="12" height="12" stroke="#92B6FD"/>
<rect y="69" width="12" height="12" stroke="#92B6FD"/>
</g>
</svg>
