<svg width="46" height="46" viewBox="0 0 46 46" fill="none" xmlns="http://www.w3.org/2000/svg">
<mask id="mask0_226_13903" style="mask-type:alpha" maskUnits="userSpaceOnUse" x="0" y="0" width="46" height="46">
<rect width="46" height="46" fill="#000F9B"/>
</mask>
<g mask="url(#mask0_226_13903)">
<path d="M16.6018 20.007C16.0445 19.6169 15.32 18.9481 15.32 17.8892L16.6018 16.1616L18.0508 12.0932L26.6891 11.2573C27.042 11.9632 27.7814 13.4531 27.9151 13.7651C28.0489 14.0772 28.5282 16.1616 28.7511 17.1647L30.423 17.4991C30.3784 19.1933 29.6428 19.7283 29.0855 19.9513C28.818 21.4225 26.9491 24.4469 26.1317 25.19C26.5219 25.3386 27.5919 25.112 28.0823 24.1311C28.6954 22.905 28.5282 22.4034 29.81 21.6232C31.0918 20.843 30.4787 20.007 31.3704 18.8367C32.2621 17.6663 30.9246 17.0533 31.4819 15.047C32.0392 13.0406 31.949 10.2122 30.423 8.02495C28.7511 5.62853 25.9646 5.53561 24.7942 5.51702C23.9917 4.5807 22.4535 5.12689 21.7847 5.51702C20.8931 4.98199 20.2614 5.73995 20.0571 6.1858C19.5184 6.03719 18.0285 6.0632 16.3789 7.35615C14.3168 8.97234 14.0524 12.9524 13.7265 14.7684C13.3363 16.9419 13.3364 16.9419 14.0609 15.883C14.3756 15.423 14.3724 18.168 14.7625 19.617C15.1526 21.066 16.3228 21.5118 16.9359 23.1837C17.3478 24.3072 18.1622 24.5769 18.1622 24.5769C18.1622 24.5769 16.9362 20.9173 16.6018 20.007Z" fill="#92B6FD"/>
<path d="M10.7546 32.5362C13.1459 31.4138 16.6742 30.0809 18.1395 29.5548H27.1069C30.8579 30.6655 39.8363 33.7426 41.3865 36.843C42.58 39.23 43.1766 40.991 43.7733 46.3618H36.0154H9.16125L2.00014 46.3614C2.5969 40.991 3.71602 38.5557 4.38738 36.843C5.13672 34.9313 7.76546 33.9392 10.7546 32.5362Z" fill="white"/>
<path d="M18.1383 30.609V24.2101H27.2815V30.7844C27.2815 31.6613 26.4024 34.4673 22.7099 34.4673C19.0175 34.4673 18.1383 31.6613 18.1383 30.609Z" fill="#FFE6DB"/>
<path d="M18.1383 24.2098H27.2815V26.3905C26.5977 27.09 24.7409 27.877 22.7847 27.877C20.8285 27.877 19.1168 26.3905 18.1383 24.8207V24.2098Z" fill="#EBB9AA" fill-opacity="0.55"/>
<path d="M16.5568 18.3321C16.5568 16.9291 16.4982 14.2401 16.5568 12.7202C17.3187 12.6032 19.6163 12.3694 22.7109 12.3694C25.8056 12.3694 28.2203 12.6032 29.0409 12.7202C29.0409 13.6056 29.1024 16.158 29.2004 18.3321C29.2004 21.4201 28.5951 22.8304 27.6753 24.2101C26.4527 26.044 24.1736 27.2666 22.7848 27.2666C20.9508 27.2666 19.1169 26.044 17.8943 24.2101C16.6716 22.3761 16.5568 20.3947 16.5568 18.3321Z" fill="#FFE6DB"/>
<path d="M15.2641 17.5477C15.2641 16.4941 16.1001 16.2181 16.6017 16.2181V20.0078C15.7657 19.5646 15.2641 18.8772 15.2641 17.5477Z" fill="#FFE6DB"/>
<path d="M30.423 17.5477C30.423 16.4941 29.5871 16.2181 29.0855 16.2181V20.0078C29.9214 19.5646 30.423 18.8772 30.423 17.5477Z" fill="#FFE6DB"/>
<path d="M23.3961 22.9874H21.5624C20.7737 22.9874 21.5622 24.2101 22.7854 24.2101C23.931 24.2101 24.3328 22.9874 23.3961 22.9874Z" fill="#EBB9AA"/>
<path d="M19.3704 14.429C18.3154 14.429 17.2705 14.6915 17.2705 15.1592L21.1287 15.832C21.1287 15.3643 20.4254 14.429 19.3704 14.429Z" fill="#6D7C8C"/>
<path d="M26.0519 14.429C24.9969 14.429 24.2935 15.3643 24.2935 15.832L28.4166 15.3821C28.4166 14.9144 27.1068 14.429 26.0519 14.429Z" fill="#6D7C8C"/>
<circle cx="19.6112" cy="17.2209" r="0.66877" fill="#6D7C8C"/>
<ellipse cx="25.9087" cy="17.2209" rx="0.7245" ry="0.66877" fill="#6D7C8C"/>
<path d="M21.8958 20.9551C21.4829 20.4747 22.2686 19.6584 22.6203 18.7815C22.9719 17.9046 22.9547 17.3882 23.0661 17.221C23.2333 17.221 23.2333 19.2275 23.2333 21.178C23.2333 21.3534 22.1832 21.2895 21.8958 20.9551Z" fill="#EBB9AA"/>
<path d="M17.7162 13.7656C18.3404 13.5427 18.4964 13.0903 18.9422 12.9854C19.2581 12.9111 20.0457 12.9631 20.6699 13.7656C21.4501 14.7688 21.3387 13.3198 22.3976 14.1558C23.4565 14.9917 23.6794 14.4345 24.181 14.1558C24.9419 13.7329 25.0169 14.2115 25.9086 13.9329C26.8003 13.6542 26.5216 12.9854 26.9118 13.2641C27.2239 13.487 27.822 13.6914 28.0821 13.7656C28.1193 14.8431 28.8066 15.4933 29.141 16.2178C31.3145 5.40609 21.2272 8.19257 17.8834 9.47438C15.2083 10.4998 15.9142 14.4344 16.6016 16.2735C16.6015 15.4933 16.6907 13.9885 17.7162 13.7656Z" fill="#92B6FD"/>
</g>
</svg>
