<svg width="46" height="46" viewBox="0 0 46 46" fill="none" xmlns="http://www.w3.org/2000/svg">
<mask id="mask0_226_13759" style="mask-type:alpha" maskUnits="userSpaceOnUse" x="0" y="0" width="46" height="46">
<rect width="46" height="46" fill="#000F9B"/>
</mask>
<g mask="url(#mask0_226_13759)">
<path d="M14.6504 12.5206C12.8669 6.16719 19.7219 6.00002 23.1772 6C31.091 5.99996 31.4254 8.5636 30.5893 13.0222C29.8902 16.7506 27.8029 22.4406 27.0226 24.4469C25.3435 28.7647 22.174 26.1745 20.1677 24.9485C18.1614 23.7224 16.2948 18.3788 14.6504 12.5206Z" fill="#92B6FD"/>
<path d="M18.138 30.6451V24.2462H27.2812C27.2812 24.8308 27.2457 30.0985 27.2457 30.8C27.2457 31.6769 26.402 34.5033 22.7096 34.5033C19.0171 34.5033 18.138 31.6974 18.138 30.6451Z" fill="#FFE6DB"/>
<path d="M10.7542 32.5723C13.1455 31.4499 16.6739 30.117 18.1391 29.5909L21.3941 32.6942L22.9546 34.8677L24.3478 32.6942L27.2458 29.629C30.9969 30.7397 39.8359 33.7787 41.3861 36.8791C42.5796 39.2661 43.1762 41.0271 43.773 46.3979H36.0151H9.1609L1.99979 46.3975C2.59655 41.0271 3.71567 38.5918 4.38703 36.8791C5.13637 34.9674 7.76511 33.9753 10.7542 32.5723Z" fill="#FFE0AB"/>
<path d="M18.138 24.2468H27.2812V26.4275C26.5973 27.127 24.7405 27.9141 22.7843 27.9141C20.8281 27.9141 19.1164 26.4275 18.138 24.8577V24.2468Z" fill="#EBB9AA" fill-opacity="0.55"/>
<path d="M16.5561 18.3682C16.5561 16.9652 16.4975 14.2761 16.5561 12.7562C17.318 12.6393 19.6156 12.4055 22.7102 12.4055C25.8049 12.4055 28.2196 12.6393 29.0402 12.7562C29.0402 13.6416 29.1017 16.1941 29.1997 18.3682C29.1997 21.4562 28.5944 22.8664 27.6746 24.2461C26.452 26.08 24.1729 27.3027 22.7841 27.3027C20.9501 27.3027 19.1162 26.08 17.8936 24.2461C16.6709 22.4122 16.5561 20.4307 16.5561 18.3682Z" fill="#FFE6DB"/>
<path d="M15.2634 17.5837C15.2634 16.5301 16.0994 16.2541 16.601 16.2541V20.0438C15.765 19.6006 15.2634 18.9133 15.2634 17.5837Z" fill="#FFE6DB"/>
<path d="M30.4223 17.5837C30.4223 16.5301 29.5864 16.2541 29.0848 16.2541V20.0438C29.9207 19.6006 30.4223 18.9133 30.4223 17.5837Z" fill="#FFE6DB"/>
<path d="M23.7347 23.1908H21.5619C20.7732 23.1908 21.4526 24.0008 22.6758 24.0008C23.8214 24.0008 24.6714 23.1908 23.7347 23.1908Z" fill="#EBB9AA"/>
<path d="M19.3876 14.9719C18.3326 14.9719 16.824 15.5631 16.824 16.0308L21.3382 15.9193C21.3382 15.4517 20.4426 14.9719 19.3876 14.9719Z" fill="#6D7C8C"/>
<path d="M25.7967 14.9719C26.8516 14.9719 28.3603 15.5631 28.3603 16.0308L23.8461 15.9193C23.8461 15.4517 24.7417 14.9719 25.7967 14.9719Z" fill="#6D7C8C"/>
<circle cx="20.1675" cy="17.3681" r="0.557308" fill="#6D7C8C"/>
<ellipse cx="25.3507" cy="17.3681" rx="0.613039" ry="0.557308" fill="#6D7C8C"/>
<path d="M22.1744 21.5105C21.8957 21.1862 21.8785 20.7711 22.2301 19.8942C22.5818 19.0173 22.8432 17.2577 22.9546 16.9791C23.2334 16.7011 23.2333 19.7261 23.2333 21.6789L23.2333 21.7333C23.2333 21.9088 22.4138 21.7891 22.1744 21.5105Z" fill="#EBB9AA"/>
<path d="M26.298 13.9695C24.9159 13.9695 21.8952 13.6351 19.5545 13.0221C16.9686 12.7992 16.4707 14.9727 16.545 16.3102C16.2478 15.2514 15.7091 12.9552 15.932 12.2419C16.2107 11.3502 19.1644 10.1799 22.5082 10.1241C25.8521 10.0684 29.1959 11.183 29.9204 12.8549C30.5 14.1925 29.5675 15.7157 29.0845 16.3102C29.0102 15.66 28.8872 14.3849 28.6944 13.6909C28.4157 12.6877 24.611 12.4892 25.6849 13.1336C26.7996 13.8023 27.5798 13.9695 26.298 13.9695Z" fill="#92B6FD"/>
</g>
</svg>
