<svg width="46" height="46" viewBox="0 0 46 46" fill="none" xmlns="http://www.w3.org/2000/svg">
<mask id="mask0_226_13829" style="mask-type:alpha" maskUnits="userSpaceOnUse" x="0" y="0" width="46" height="46">
<rect width="46" height="46" fill="#000F9B"/>
</mask>
<g mask="url(#mask0_226_13829)">
<path d="M18.1613 30.2477V23.8488H27.3045C27.3045 24.4334 27.269 29.7011 27.269 30.4026C27.269 31.2795 26.4253 34.1059 22.7329 34.1059C19.0404 34.1059 18.1613 31.3 18.1613 30.2477Z" fill="#FFE6DB"/>
<path d="M12.8345 31.0151C15.3066 30.084 16.6971 29.7197 18.1623 29.1936C18.1623 29.1936 18.1623 33.6344 23.1447 33.6344C28.049 33.6344 27.269 29.2317 27.269 29.2317C35.9628 31.4052 36.5896 31.2937 38.2477 36.4818C39.0602 39.0239 39.4344 40.6297 40.0311 46.0006H31.8735H12.5001H6.7041C6.98276 40.768 7.31714 38.7059 7.72626 36.4818C8.09773 34.4623 8.54322 32.6313 12.8345 31.0151Z" fill="#FC9744"/>
<path d="M18.1613 23.8494H27.3045V26.0301C26.6206 26.7296 24.7638 27.5167 22.8076 27.5167C20.8514 27.5167 19.1397 26.0301 18.1613 24.4603V23.8494Z" fill="#EBB9AA" fill-opacity="0.55"/>
<path d="M15.733 18.03C15.733 16.627 16.5214 13.8785 16.58 12.3586C17.3419 12.2416 19.6395 12.0078 22.7341 12.0078C25.8287 12.0078 28.2435 12.2416 29.064 12.3586C29.064 13.244 29.1256 15.7964 29.2236 17.9705C29.2236 21.0585 28.6907 22.6135 27.7709 23.9932C26.4333 25.9995 24.2554 26.6683 22.8666 26.6683C21.0326 26.6683 18.9062 25.7157 17.6836 23.8817C16.461 22.0478 15.733 20.0925 15.733 18.03Z" fill="#FFE6DB"/>
<path d="M15.2867 17.1861C15.2867 16.1325 16.1227 15.8565 16.6243 15.8565V19.6462C15.7883 19.203 15.2867 18.5156 15.2867 17.1861Z" fill="#FFE6DB"/>
<path d="M30.6131 19.5909C30.7733 18.5496 30.1116 17.4174 29.1084 17.8632L28.6625 21.9874C29.5561 21.6764 30.411 20.9051 30.6131 19.5909Z" fill="#FFE6DB"/>
<path d="M22.6992 24.5807C23.4237 24.5807 23.9253 23.7707 23.0893 23.7707L22.6992 24.0791L22.3091 23.7707C21.5204 23.7707 21.919 24.5807 22.6992 24.5807Z" fill="#EBB9AA"/>
<path d="M20.2885 16.7481C21.3435 16.7481 22.1833 17.2279 22.1833 17.6955L19.9541 17.5283L18.3379 17.6955C18.0592 17.6955 19.2335 16.7481 20.2885 16.7481Z" fill="#6D7C8C"/>
<path d="M25.4297 16.7481C24.3748 16.7481 23.5349 17.2279 23.5349 17.6955L25.7641 17.5283L27.3803 17.6955C27.659 17.6955 26.4847 16.7481 25.4297 16.7481Z" fill="#6D7C8C"/>
<circle cx="20.1913" cy="18.9773" r="0.557308" fill="#6D7C8C"/>
<ellipse cx="25.3738" cy="18.9772" rx="0.613039" ry="0.557308" fill="#6D7C8C"/>
<path d="M22.1975 21.9581C21.9188 21.6339 22.236 21.4246 22.5876 20.5478C22.7217 20.2134 22.866 19.8233 22.866 20.0461C22.7545 20.8821 22.6431 21.2723 23.1449 22.1082C23.2352 22.2586 22.4369 22.2367 22.1975 21.9581Z" fill="#EBB9AA"/>
<path d="M21.4175 13.7569C22.6212 14.1136 23.0337 14.2957 23.6467 14.8158C25.04 16.3205 25.8573 14.7972 26.6562 14.9273C26.6004 16.2463 27.6101 16.302 28.5203 16.3205C28.2417 16.5992 27.7847 17.2791 28.1859 17.7695C28.7655 18.4383 29.4306 18.0482 29.6907 17.7695C29.9507 17.8439 30.4932 18.182 30.5824 18.9399C30.7607 20.6787 29.3934 21.6707 28.6875 21.9493C28.2417 23.8219 26.6069 25.2932 25.8452 25.7948V30.8663H26.9041C27.4391 30.465 27.833 29.8074 27.963 29.5287C28.446 29.8631 29.6015 30.3981 30.3594 29.8631C31.1174 29.3281 30.9353 28.0054 30.7496 27.411C31.3626 27.7454 32.7447 28.1689 33.3689 27.1881C33.9931 26.2072 33.5175 25.0703 33.2017 24.6244C33.7962 24.4944 34.9739 24.0114 34.9294 23.1197C34.8848 22.228 33.8705 21.6707 33.3689 21.5035C34.6619 19.6755 32.9788 18.4755 31.9756 18.1039C32.689 16.0085 31.0468 15.113 30.1365 14.9273C30.4932 13.0101 29.4677 12.1593 28.9104 11.9735C28.6875 9.87807 26.6626 9.317 25.678 9.29841C24.9647 8.4513 23.746 8.72255 23.2259 8.96407C17.3407 8.11696 16.2038 10.989 16.371 12.5308C13.2501 12.5308 13.2872 15.1688 13.6959 16.4877C10.2963 17.6023 12.5256 20.4446 12.5256 20.5561C10.9205 21.7599 11.7825 23.4355 12.4141 24.1228C11.7899 24.4349 11.9311 25.3675 12.0797 25.7948C11.5001 28.4698 13.9188 28.6556 15.2006 28.4141C16.6273 30.5988 18.7303 29.9188 19.6034 29.3058L19.7148 25.7948C18.1098 24.9031 17.0398 22.8596 16.7054 21.9493C18.1321 21.3252 18.1172 19.3857 17.9314 18.494C19.9378 17.5132 18.2965 15.3546 19.6034 14.8158C20.4143 15.1874 21.4175 14.6301 21.4175 13.7569Z" fill="#92B6FD"/>
</g>
</svg>
