<svg width="40" height="40" viewBox="0 0 40 40" fill="none" xmlns="http://www.w3.org/2000/svg">
<mask id="mask0_226_13008" style="mask-type:alpha" maskUnits="userSpaceOnUse" x="0" y="0" width="40" height="40">
<rect x="0.5" y="0.5" width="39" height="39" fill="#000F9B" stroke="white"/>
</mask>
<g mask="url(#mask0_226_13008)">
<path d="M9.08891 28.6914C11.0448 27.7734 13.9306 26.6832 15.1291 26.2529H22.4636C25.5316 27.1614 32.8751 29.6782 34.143 32.214C35.1192 34.1664 35.6071 35.6067 36.0952 39.9995H29.75H7.7857L1.92856 39.9992C2.41665 35.6067 3.332 33.6148 3.8811 32.214C4.494 30.6504 6.64407 29.8389 9.08891 28.6914Z" fill="white"/>
<path d="M15.1284 27.1146V25.1064H22.6067V27.258C22.6067 27.9752 21.8877 30.2703 18.8676 30.2703C15.8475 30.2703 15.1284 27.9752 15.1284 27.1146Z" fill="#FFE6DB"/>
<path d="M12.6842 12.3398C12.4541 12.9136 12.5883 14.8739 12.6842 15.7824C12.7447 16.3561 13.1156 16.9299 13.2594 17.6471C13.4032 18.3643 12.5403 20.3724 12.6842 22.0937C12.828 23.815 14.8414 25.106 15.2728 25.2494C15.7042 25.3928 15.7042 25.3928 16.9986 26.8272C18.2929 28.2616 20.3063 27.5444 21.0254 26.6838C21.7444 25.8232 22.6073 25.3928 23.4702 24.5322C24.3331 23.6716 24.7645 23.2412 24.9083 22.0937C25.0521 20.9462 24.4769 18.938 24.4769 18.5077C24.4769 18.0774 25.0521 16.643 25.196 15.7824C25.2432 15.4994 25.196 12.7701 25.196 12.4832C25.196 12.1964 22.8949 10.762 19.012 10.762C15.129 10.762 12.9718 11.6226 12.6842 12.3398Z" fill="#6D7C8C"/>
<path d="M13.8348 17.0732C13.8348 15.9257 13.7868 13.7263 13.8348 12.4832C14.458 12.3875 16.3372 12.1963 18.8683 12.1963C21.3994 12.1963 23.3745 12.3875 24.0456 12.4832C24.0456 13.4872 24.3332 17.5241 23.6142 18.6511C22.6075 20.2289 21.6008 19.7986 21.3132 19.6552C21.0255 19.5117 20.8817 18.938 20.3065 18.938C19.7312 18.938 19.4436 19.0814 19.0121 19.0814C18.5807 19.0814 18.4369 18.938 17.8616 18.938C17.2864 18.938 17.1426 19.5117 16.5673 19.6552C14.6977 20.2289 13.8348 18.2208 13.8348 17.0732Z" fill="#FFE6DB"/>
<path d="M12.2528 16.2132C12.2528 15.5312 12.9718 15.3525 13.4033 15.3525L13.2595 17.791C12.5404 17.5041 12.2528 17.0738 12.2528 16.2132Z" fill="#FFE6DB"/>
<path d="M25.6273 16.2132C25.6273 15.5312 24.9082 15.3525 24.4768 15.3525L24.6206 17.791C25.3397 17.5041 25.6273 17.0738 25.6273 16.2132Z" fill="#FFE6DB"/>
<path d="M18.8682 10.7619C23.1827 10.7619 24.9084 12.4832 25.196 12.4832C25.4072 12.4832 25.5409 11.8647 25.5401 11.4791C26.0486 11.1922 26.9506 10.3603 26.4904 9.3275C25.9151 8.03654 24.477 7.8931 23.7579 7.60622C23.0388 7.31934 22.7512 6.88902 22.4636 6.4587C22.176 6.02838 21.4569 4.88086 18.8682 4.88086C16.2796 4.88086 15.5605 5.7415 15.4167 6.31526C15.2729 6.88902 14.41 7.60622 13.8348 7.74966C13.2595 7.8931 11.1023 8.46686 11.1023 9.75782C11.1023 10.7906 11.9697 11.3357 12.4034 11.4791C12.4384 12.1797 12.5991 12.4407 12.6842 12.4832C12.7801 12.531 13.6909 10.7619 18.8682 10.7619Z" fill="#92B6FD"/>
<path d="M20.1622 20.085H17.5736C17.6695 20.324 18.0625 20.8022 18.8679 20.8022C19.6733 20.8022 20.0664 20.324 20.1622 20.085Z" fill="#EBB9AA"/>
<path d="M16.1359 13.6309C15.273 13.6309 14.6978 14.3959 14.6978 14.7784H17.574C17.574 14.3959 16.9988 13.6309 16.1359 13.6309Z" fill="#6D7C8C"/>
<path d="M21.6007 13.6309C20.7379 13.6309 20.1626 14.3959 20.1626 14.7784H23.0389C23.0389 14.3959 22.4636 13.6309 21.6007 13.6309Z" fill="#6D7C8C"/>
<ellipse cx="16.2794" cy="15.7829" rx="0.431441" ry="0.43032" fill="#6D7C8C"/>
<ellipse cx="21.4567" cy="15.7829" rx="0.431441" ry="0.43032" fill="#6D7C8C"/>
<path d="M18.4367 18.9381C18.0053 18.6512 18.1491 17.7906 18.4367 17.0734C18.7243 16.3562 18.7243 14.9218 18.8681 14.6349C19.0982 14.4054 19.3475 17.3124 19.4434 18.7947C19.4434 18.9382 18.7818 19.1676 18.4367 18.9381Z" fill="#EBB9AA"/>
</g>
</svg>
