<svg width="40" height="40" viewBox="0 0 40 40" fill="none" xmlns="http://www.w3.org/2000/svg">
<path fill-rule="evenodd" clip-rule="evenodd" d="M15.8246 7.28054L15.9859 6.99297C16.3543 6.33627 16.948 5.83515 17.6572 5.58227L18.7826 5.18101C19.4595 4.93966 20.199 4.93966 20.8759 5.18102L22.3065 5.69111C22.8269 5.87668 23.2887 6.19727 23.6444 6.62004L24.5193 7.65976C24.8749 8.0824 25.3467 8.3915 25.8761 8.54881C26.6119 8.76743 27.243 9.27099 27.4935 9.99656C28.0098 11.492 28.3665 13.6842 27.3549 15.3072C26.2538 17.0738 25.2299 18.4138 24.6729 19.084C24.5086 19.2817 24.2633 19.3903 24.0063 19.3903C23.5064 19.3903 23.1013 19.7955 23.1013 20.2953V22.0668C23.1013 22.2194 23.0361 22.3648 22.9221 22.4664L22.6554 22.7041C22.5227 22.8224 22.4469 22.9917 22.4469 23.1694V33.3676C22.4469 33.5648 22.3535 33.7503 22.1952 33.8679L20.8364 34.8772C20.6249 35.0343 20.3374 35.0415 20.1183 34.895L18.1429 33.5745C17.9699 33.4588 17.866 33.2644 17.866 33.0563V31.2191C17.866 31.1123 17.8935 31.0073 17.9457 30.9141L18.4408 30.0316C18.493 29.9385 18.5204 29.8335 18.5204 29.7267V29.0024C18.5204 28.8246 18.4446 28.6554 18.3119 28.5371L18.0433 28.2977C17.9291 28.1959 17.7815 28.1397 17.6286 28.1397H16.5261C16.1819 28.1397 15.9028 27.8606 15.9028 27.5164V26.717C15.9028 26.5363 16.0493 26.3898 16.23 26.3898C16.4107 26.3898 16.5572 26.2433 16.5572 26.0626V25.5504C16.5572 25.3697 16.4107 25.2232 16.23 25.2232C16.0493 25.2232 15.9028 25.0767 15.9028 24.896V24.0966C15.9028 23.7524 16.1819 23.4733 16.5261 23.4733H17.4633C17.6857 23.4733 17.866 23.293 17.866 23.0706C17.866 22.9557 17.817 22.8463 17.7313 22.7699L17.3908 22.4664C17.2768 22.3648 17.2116 22.2194 17.2116 22.0668V20.338C17.2116 19.8146 16.7873 19.3903 16.2639 19.3903C16.0313 19.3903 15.8065 19.3062 15.639 19.1448C14.8895 18.4231 13.5558 16.9562 12.6308 15.3072C11.5411 13.3646 12.0392 11.0176 12.803 9.61295C13.0742 9.11422 13.5753 8.80477 14.1194 8.64308C14.8434 8.42797 15.4551 7.93921 15.8246 7.28054ZM19.8529 10.0575C20.9371 10.0575 21.8161 9.2741 21.8161 8.30766C21.8161 7.34122 20.9371 6.55777 19.8529 6.55777C18.7686 6.55777 17.8896 7.34122 17.8896 8.30766C17.8896 9.2741 18.7686 10.0575 19.8529 10.0575Z" fill="white"/>
<path fill-rule="evenodd" clip-rule="evenodd" d="M23.9257 10.0402C23.0039 9.02401 21.2253 10.0563 19.8533 10.0563C18.481 10.0563 16.7022 9.02312 15.78 10.0393C15.0527 10.8407 14.6172 11.861 14.6172 12.9719C14.6172 15.5491 16.9611 17.6383 19.8524 17.6383C22.7437 17.6383 25.0876 15.5491 25.0876 12.9719C25.0876 11.8614 24.6524 10.8414 23.9257 10.0402Z" fill="#92B6FD"/>
</svg>
